<svg id="google" xmlns="http://www.w3.org/2000/svg" width="90" height="90" viewBox="0 0 90 90">
  <path id="Path_11883" data-name="Path 11883" d="M19.946,168.351l-3.133,11.7-11.45.242a45.079,45.079,0,0,1-.331-42.02h0l10.194,1.869,4.466,10.133a26.856,26.856,0,0,0,.252,18.082Z" transform="translate(0 -113.963)" fill="#fbbb00"/>
  <path id="Path_11884" data-name="Path 11884" d="M304.852,208.176a44.983,44.983,0,0,1-16.042,43.5l0,0-12.84-.655-1.817-11.344a26.819,26.819,0,0,0,11.539-13.7H261.628v-17.8h43.224Z" transform="translate(-215.639 -171.583)" fill="#518ef8"/>
  <path id="Path_11885" data-name="Path 11885" d="M98.316,335.111l0,0a45.015,45.015,0,0,1-67.809-13.767l14.583-11.937a26.763,26.763,0,0,0,38.566,13.7Z" transform="translate(-25.146 -255.021)" fill="#28b446"/>
  <path id="Path_11886" data-name="Path 11886" d="M97.316,10.36,82.738,22.295A26.76,26.76,0,0,0,43.286,36.307l-14.66-12h0A45.009,45.009,0,0,1,97.316,10.36Z" transform="translate(-23.592)" fill="#f14336"/>
</svg>
