<svg width="1058" height="611" viewBox="0 0 1058 611" fill="none" xmlns="http://www.w3.org/2000/svg">
<g clip-path="url(#clip0_47_1133)">
<path opacity="0.05" d="M629.955 178.445C627.505 178.447 625.082 177.942 622.837 176.961C620.592 175.98 618.575 174.545 616.913 172.745C593.538 147.409 565.801 126.479 535.024 110.953C530.811 108.835 527.612 105.13 526.131 100.654C524.65 96.1772 525.008 91.2958 527.126 87.0831C529.244 82.8704 532.949 79.6716 537.425 78.1904C541.902 76.7093 546.783 77.067 550.996 79.185C585.576 96.6139 616.739 120.122 642.996 148.585C645.347 151.121 646.907 154.288 647.486 157.698C648.064 161.108 647.635 164.612 646.251 167.781C644.867 170.951 642.588 173.648 639.695 175.541C636.801 177.435 633.417 178.444 629.959 178.443L629.955 178.445ZM196.067 172.717C222.872 143.641 255.401 120.422 291.61 104.521C327.82 88.6198 366.926 80.3792 406.473 80.317C429.077 80.224 451.604 82.9654 473.526 88.477C475.789 89.0606 478.144 89.1923 480.458 88.8646C482.772 88.5369 484.998 87.7562 487.01 86.5672C489.022 85.3782 490.779 83.8041 492.182 81.9352C493.585 80.0662 494.605 77.939 495.185 75.6753C495.765 73.4115 495.893 71.0557 495.561 68.7425C495.23 66.4293 494.446 64.2041 493.253 62.1944C492.061 60.1846 490.484 58.4297 488.613 57.0299C486.742 55.6302 484.613 54.6132 482.348 54.037C457.542 47.7947 432.052 44.6812 406.473 44.769C362.012 44.837 318.046 54.1001 277.338 71.9764C236.629 89.8527 200.058 115.956 169.923 148.645C168.322 150.358 167.076 152.371 166.257 154.568C165.438 156.765 165.061 159.102 165.149 161.445C165.237 163.788 165.788 166.09 166.77 168.219C167.752 170.349 169.145 172.262 170.87 173.851C172.595 175.439 174.617 176.67 176.819 177.473C179.022 178.277 181.362 178.636 183.704 178.531C186.047 178.426 188.345 177.858 190.467 176.861C192.589 175.864 194.492 174.456 196.068 172.72L196.067 172.717ZM255.674 236.265C273.656 215.351 295.797 198.414 320.688 186.531C345.578 174.649 372.671 168.083 400.24 167.251C404.955 167.113 409.422 165.11 412.661 161.682C415.901 158.254 417.648 153.681 417.52 148.966C417.319 144.273 415.296 139.844 411.881 136.619C408.466 133.394 403.928 131.628 399.231 131.697C366.724 132.69 334.779 140.438 305.429 154.447C276.078 168.457 249.966 188.422 228.751 213.073C227.149 214.83 225.916 216.89 225.124 219.132C224.332 221.374 223.998 223.751 224.142 226.125C224.285 228.498 224.903 230.818 225.959 232.948C227.015 235.078 228.488 236.975 230.29 238.526C232.091 240.077 234.186 241.251 236.45 241.978C238.713 242.705 241.1 242.971 243.468 242.759C245.836 242.548 248.137 241.864 250.236 240.747C252.335 239.631 254.189 238.105 255.688 236.259L255.674 236.265ZM582.388 238.117C585.952 235.03 588.145 230.655 588.487 225.952C588.828 221.249 587.29 216.603 584.209 213.033C557.043 181.509 521.958 157.805 482.573 144.367C480.361 143.619 478.023 143.314 475.693 143.469C473.364 143.625 471.087 144.238 468.994 145.273C466.901 146.308 465.032 147.745 463.495 149.503C461.957 151.26 460.781 153.303 460.033 155.515C459.285 157.727 458.98 160.065 459.135 162.395C459.291 164.724 459.904 167.001 460.939 169.094C461.974 171.187 463.411 173.056 465.169 174.593C466.926 176.131 468.969 177.307 471.181 178.055C504.563 189.451 534.295 209.559 557.302 236.297C560.387 239.865 564.763 242.061 569.467 242.403C574.171 242.744 578.818 241.203 582.386 238.118L582.388 238.117ZM521.861 303.581C525.669 300.8 528.216 296.62 528.943 291.961C529.67 287.301 528.517 282.544 525.737 278.735C512.005 259.985 494.055 244.728 473.338 234.195C452.621 223.662 429.717 218.149 406.476 218.102C404.272 218.076 402.068 218.181 399.876 218.416C395.236 218.987 391.013 221.374 388.13 225.054C385.248 228.734 383.942 233.407 384.5 238.048C385.078 242.714 387.462 246.967 391.139 249.895C394.817 252.824 399.496 254.194 404.173 253.712C404.94 253.641 405.712 253.624 406.482 253.661C424.127 253.695 441.516 257.879 457.245 265.875C472.975 273.871 486.602 285.455 497.027 299.691C499.807 303.497 503.986 306.043 508.644 306.769C513.301 307.495 518.056 306.341 521.863 303.561L521.861 303.581ZM467.608 366.045C467.608 353.954 464.023 342.134 457.305 332.081C450.588 322.027 441.04 314.192 429.869 309.565C418.698 304.937 406.406 303.727 394.547 306.086C382.688 308.445 371.795 314.267 363.246 322.817C354.696 331.366 348.873 342.26 346.515 354.118C344.156 365.977 345.366 378.269 349.993 389.44C354.621 400.611 362.456 410.159 372.51 416.876C382.563 423.594 394.383 427.179 406.474 427.179C422.688 427.179 438.237 420.738 449.702 409.273C461.167 397.808 467.608 382.259 467.608 366.045ZM432.049 366.045C432.049 371.103 430.549 376.047 427.739 380.252C424.929 384.457 420.935 387.735 416.263 389.671C411.59 391.606 406.448 392.112 401.488 391.126C396.527 390.139 391.971 387.703 388.394 384.127C384.818 380.55 382.383 375.994 381.396 371.033C380.41 366.073 380.916 360.931 382.852 356.258C384.787 351.586 388.065 347.592 392.271 344.782C396.476 341.972 401.42 340.473 406.478 340.473C409.836 340.473 413.161 341.134 416.264 342.42C419.366 343.705 422.185 345.588 424.56 347.963C426.934 350.338 428.818 353.157 430.103 356.259C431.388 359.362 432.049 362.687 432.049 366.045ZM243.575 335.175L543.585 30.7601C545.224 29.0982 546.52 27.1298 547.399 24.9671C548.278 22.8044 548.722 20.4898 548.706 18.1554C548.69 15.8211 548.215 13.5128 547.307 11.3622C546.399 9.21165 545.076 7.26092 543.414 5.6215C541.753 3.98208 539.784 2.68604 537.621 1.80735C535.459 0.928674 533.144 0.484576 530.81 0.500409C528.476 0.516241 526.167 0.991705 524.017 1.89964C521.866 2.80757 519.915 4.13022 518.276 5.79203L218.265 310.217C216.607 311.875 215.294 313.844 214.4 316.012C213.507 318.18 213.051 320.503 213.059 322.847C213.067 325.192 213.539 327.512 214.448 329.673C215.357 331.834 216.684 333.795 218.353 335.441C220.023 337.087 222.001 338.387 224.175 339.265C226.349 340.143 228.675 340.583 231.02 340.558C233.364 340.533 235.681 340.045 237.836 339.122C239.99 338.198 241.941 336.857 243.576 335.176L243.575 335.175Z" fill="black"/>
<path opacity="0.05" d="M629.955 178.445C627.505 178.447 625.082 177.942 622.837 176.961C620.592 175.98 618.575 174.545 616.913 172.745C593.538 147.409 565.801 126.479 535.024 110.953C530.811 108.835 527.612 105.13 526.131 100.654C524.65 96.1772 525.008 91.2958 527.126 87.0831C529.244 82.8704 532.949 79.6716 537.425 78.1904C541.902 76.7093 546.783 77.067 550.996 79.185C585.576 96.6139 616.739 120.122 642.996 148.585C645.347 151.121 646.907 154.288 647.486 157.698C648.064 161.108 647.635 164.612 646.251 167.781C644.867 170.951 642.588 173.648 639.695 175.541C636.801 177.435 633.417 178.444 629.959 178.443L629.955 178.445ZM196.067 172.717C222.872 143.641 255.401 120.422 291.61 104.521C327.82 88.6198 366.926 80.3792 406.473 80.317C429.077 80.224 451.604 82.9654 473.526 88.477C475.789 89.0606 478.144 89.1923 480.458 88.8646C482.772 88.5369 484.998 87.7562 487.01 86.5672C489.022 85.3782 490.779 83.8041 492.182 81.9352C493.585 80.0662 494.605 77.939 495.185 75.6753C495.765 73.4115 495.893 71.0557 495.561 68.7425C495.23 66.4293 494.446 64.2041 493.253 62.1944C492.061 60.1846 490.484 58.4297 488.613 57.0299C486.742 55.6302 484.613 54.6132 482.348 54.037C457.542 47.7947 432.052 44.6812 406.473 44.769C362.012 44.837 318.046 54.1001 277.338 71.9764C236.629 89.8527 200.058 115.956 169.923 148.645C168.322 150.358 167.076 152.371 166.257 154.568C165.438 156.765 165.061 159.102 165.149 161.445C165.237 163.788 165.788 166.09 166.77 168.219C167.752 170.349 169.145 172.262 170.87 173.851C172.595 175.439 174.617 176.67 176.819 177.473C179.022 178.277 181.362 178.636 183.704 178.531C186.047 178.426 188.345 177.858 190.467 176.861C192.589 175.864 194.492 174.456 196.068 172.72L196.067 172.717ZM255.674 236.265C273.656 215.351 295.797 198.414 320.688 186.531C345.578 174.649 372.671 168.083 400.24 167.251C404.955 167.113 409.422 165.11 412.661 161.682C415.901 158.254 417.648 153.681 417.52 148.966C417.319 144.273 415.296 139.844 411.881 136.619C408.466 133.394 403.928 131.628 399.231 131.697C366.724 132.69 334.779 140.438 305.429 154.447C276.078 168.457 249.966 188.422 228.751 213.073C227.149 214.83 225.916 216.89 225.124 219.132C224.332 221.374 223.998 223.751 224.142 226.125C224.285 228.498 224.903 230.818 225.959 232.948C227.015 235.078 228.488 236.975 230.29 238.526C232.091 240.077 234.186 241.251 236.45 241.978C238.713 242.705 241.1 242.971 243.468 242.759C245.836 242.548 248.137 241.864 250.236 240.747C252.335 239.631 254.189 238.105 255.688 236.259L255.674 236.265ZM582.388 238.117C585.952 235.03 588.145 230.655 588.487 225.952C588.828 221.249 587.29 216.603 584.209 213.033C557.043 181.509 521.958 157.805 482.573 144.367C480.361 143.619 478.023 143.314 475.693 143.469C473.364 143.625 471.087 144.238 468.994 145.273C466.901 146.308 465.032 147.745 463.495 149.503C461.957 151.26 460.781 153.303 460.033 155.515C459.285 157.727 458.98 160.065 459.135 162.395C459.291 164.724 459.904 167.001 460.939 169.094C461.974 171.187 463.411 173.056 465.169 174.593C466.926 176.131 468.969 177.307 471.181 178.055C504.563 189.451 534.295 209.559 557.302 236.297C560.387 239.865 564.763 242.061 569.467 242.403C574.171 242.744 578.818 241.203 582.386 238.118L582.388 238.117ZM521.861 303.581C525.669 300.8 528.216 296.62 528.943 291.961C529.67 287.301 528.517 282.544 525.737 278.735C512.005 259.985 494.055 244.728 473.338 234.195C452.621 223.662 429.717 218.149 406.476 218.102C404.272 218.076 402.068 218.181 399.876 218.416C395.236 218.987 391.013 221.374 388.13 225.054C385.248 228.734 383.942 233.407 384.5 238.048C385.078 242.714 387.462 246.967 391.139 249.895C394.817 252.824 399.496 254.194 404.173 253.712C404.94 253.641 405.712 253.624 406.482 253.661C424.127 253.695 441.516 257.879 457.245 265.875C472.975 273.871 486.602 285.455 497.027 299.691C499.807 303.497 503.986 306.043 508.644 306.769C513.301 307.495 518.056 306.341 521.863 303.561L521.861 303.581ZM467.608 366.045C467.608 353.954 464.023 342.134 457.305 332.081C450.588 322.027 441.04 314.192 429.869 309.565C418.698 304.937 406.406 303.727 394.547 306.086C382.688 308.445 371.795 314.267 363.246 322.817C354.696 331.366 348.873 342.26 346.515 354.118C344.156 365.977 345.366 378.269 349.993 389.44C354.621 400.611 362.456 410.159 372.51 416.876C382.563 423.594 394.383 427.179 406.474 427.179C422.688 427.179 438.237 420.738 449.702 409.273C461.167 397.808 467.608 382.259 467.608 366.045ZM432.049 366.045C432.049 371.103 430.549 376.047 427.739 380.252C424.929 384.457 420.935 387.735 416.263 389.671C411.59 391.606 406.448 392.112 401.488 391.126C396.527 390.139 391.971 387.703 388.394 384.127C384.818 380.55 382.383 375.994 381.396 371.033C380.41 366.073 380.916 360.931 382.852 356.258C384.787 351.586 388.065 347.592 392.271 344.782C396.476 341.972 401.42 340.473 406.478 340.473C409.836 340.473 413.161 341.134 416.264 342.42C419.366 343.705 422.185 345.588 424.56 347.963C426.934 350.338 428.818 353.157 430.103 356.259C431.388 359.362 432.049 362.687 432.049 366.045ZM243.575 335.175L543.585 30.7601C545.224 29.0982 546.52 27.1298 547.399 24.9671C548.278 22.8044 548.722 20.4898 548.706 18.1554C548.69 15.8211 548.215 13.5128 547.307 11.3622C546.399 9.21165 545.076 7.26092 543.414 5.6215C541.753 3.98208 539.784 2.68604 537.621 1.80735C535.459 0.928674 533.144 0.484576 530.81 0.500409C528.476 0.516241 526.167 0.991705 524.017 1.89964C521.866 2.80757 519.915 4.13022 518.276 5.79203L218.265 310.217C216.607 311.875 215.294 313.844 214.4 316.012C213.507 318.18 213.051 320.503 213.059 322.847C213.067 325.192 213.539 327.512 214.448 329.673C215.357 331.834 216.684 333.795 218.353 335.441C220.023 337.087 222.001 338.387 224.175 339.265C226.349 340.143 228.675 340.583 231.02 340.558C233.364 340.533 235.681 340.045 237.836 339.122C239.99 338.198 241.941 336.857 243.576 335.176L243.575 335.175Z" fill="#037A80"/>
<path d="M790.744 399.357C790.49 397.871 789.662 396.545 788.438 395.666C787.214 394.786 785.693 394.424 784.204 394.657C782.715 394.89 781.377 395.699 780.48 396.911C779.583 398.122 779.199 399.638 779.411 401.13C780.233 406.473 781.283 423.207 775.511 429.944C774.33 431.366 772.677 432.316 770.853 432.621L771.378 400.748C771.403 399.641 771.206 398.54 770.798 397.51C770.391 396.48 769.781 395.543 769.005 394.752C768.229 393.962 767.303 393.335 766.281 392.909C765.259 392.482 764.162 392.265 763.054 392.27C761.947 392.274 760.852 392.5 759.833 392.935C758.814 393.37 757.893 394.004 757.124 394.801C756.354 395.598 755.753 396.54 755.353 397.573C754.954 398.606 754.766 399.709 754.8 400.816L756.3 461.306C754.404 461.037 752.676 460.075 751.448 458.606C745.672 451.872 746.722 435.138 747.548 429.792C747.676 429.043 747.654 428.276 747.483 427.535C747.312 426.794 746.996 426.095 746.552 425.478C746.109 424.861 745.547 424.338 744.899 423.939C744.252 423.541 743.532 423.276 742.781 423.158C742.03 423.041 741.263 423.074 740.525 423.255C739.787 423.437 739.092 423.763 738.481 424.215C737.87 424.667 737.355 425.237 736.966 425.89C736.577 426.543 736.322 427.266 736.215 428.019C735.803 430.651 732.488 454.085 742.731 466.053C744.453 468.076 746.57 469.726 748.954 470.898C751.338 472.071 753.937 472.743 756.59 472.872L757.242 499.201H769.759L770.666 444.194C773.268 444.033 775.811 443.348 778.142 442.181C780.473 441.014 782.545 439.388 784.233 437.402C794.461 425.427 791.154 401.996 790.744 399.357Z" fill="#BDBDBD"/>
<path d="M256.344 450.627C256.195 449.669 255.671 448.81 254.887 448.238C254.104 447.667 253.126 447.429 252.168 447.579C251.21 447.729 250.35 448.253 249.779 449.036C249.207 449.819 248.97 450.797 249.119 451.755C249.644 455.165 250.312 465.83 246.63 470.123C245.877 471.027 244.825 471.63 243.664 471.823L244.005 451.505C244.011 450.806 243.879 450.112 243.614 449.463C243.35 448.815 242.96 448.226 242.466 447.73C241.972 447.234 241.385 446.841 240.738 446.574C240.091 446.307 239.398 446.171 238.698 446.174C237.998 446.177 237.306 446.319 236.661 446.591C236.017 446.864 235.433 447.262 234.943 447.762C234.454 448.263 234.069 448.855 233.81 449.505C233.551 450.156 233.424 450.851 233.436 451.55L234.39 490.109C233.182 489.938 232.079 489.325 231.297 488.387C227.615 484.095 228.283 473.426 228.808 470.02C228.958 469.062 228.721 468.084 228.149 467.301C227.578 466.517 226.718 465.993 225.76 465.843C224.802 465.694 223.824 465.931 223.041 466.502C222.257 467.074 221.733 467.933 221.583 468.891C221.32 470.568 219.197 485.509 225.736 493.137C226.833 494.427 228.183 495.478 229.703 496.226C231.222 496.973 232.879 497.4 234.57 497.481L234.986 514.266H242.964L243.544 479.199C245.203 479.096 246.824 478.66 248.31 477.916C249.797 477.172 251.118 476.136 252.194 474.869C258.702 467.247 256.622 452.327 256.344 450.627Z" fill="#BDBDBD"/>
<path d="M522.779 464.83C811.5 464.83 1057.93 610.952 1057.93 610.952H0C0 610.952 234.055 464.83 522.779 464.83Z" fill="url(#paint0_linear_47_1133)"/>
<path d="M589.976 433.841C589.976 433.841 589.737 447.902 589.976 449.31C590.215 450.718 584.476 458.959 582.134 458.594C579.476 458.356 576.872 457.705 574.415 456.665C573.732 455.884 574.036 454.039 574.274 452.352C574.512 450.665 576.274 435.352 576.274 434.568C576.274 433.784 587.354 431.703 589.976 433.841Z" fill="#FFBE9D"/>
<path d="M580.878 448.502C577.942 450.087 576.292 454.915 575.878 454.98C575.464 455.045 574.677 454.922 574.677 454.445C574.677 453.968 574.798 452.358 574.262 452.358C573.726 452.358 573.125 454.983 573.01 458.799C572.895 462.615 571.534 471.718 573.01 472.877C573.938 473.603 582.435 478.066 582.674 478.677C582.913 479.288 582.492 483.451 583.208 484.105C583.924 484.759 585.595 486.372 586.909 486.434C591.052 486.89 595.233 486.89 599.377 486.434C602.266 485.868 605.045 484.841 607.607 483.392C607.48 479.361 606.798 475.367 605.58 471.523C604.448 470.272 596.28 459.057 595.617 458.042C594.884 456.514 594.497 454.844 594.482 453.15C594.401 452.013 594.014 450.919 593.361 449.985C592.708 449.051 591.814 448.311 590.774 447.844C587.484 447.065 584.036 447.294 580.878 448.502Z" fill="#037A80"/>
<path d="M504.271 441.973C504.271 441.973 504.271 450.157 504.036 451.574C503.801 452.991 509.543 461.223 511.878 460.858C514.536 460.618 517.141 459.967 519.598 458.927C520.28 458.146 519.98 456.298 519.734 454.614C519.488 452.93 517.978 443.49 517.978 442.705C517.978 441.92 506.863 439.835 504.271 441.973Z" fill="#FFBE9D"/>
<path d="M511.83 261.274C506.475 285.47 503.263 310.092 502.23 334.853C502.23 354.969 500.218 406.246 500.218 414.041C500.218 421.836 499.38 441.171 501.391 442.177C505.279 444.654 509.9 445.72 514.48 445.198C516.716 445.096 518.825 444.128 520.359 442.499C521.894 440.869 522.735 438.707 522.703 436.469C522.87 432.777 524.381 406.26 525.892 396.021C527.403 385.782 532.772 366.037 536.298 353.336C539.824 340.635 548.048 315.094 550.23 315.193C552.412 315.292 566.003 371.244 567.13 374.414C568.257 377.584 570.421 422.636 570.56 426.42C570.699 430.204 570.56 433.843 572.947 435.384C577.065 438.022 581.614 439.918 586.387 440.984C590.168 441.267 592.687 435.243 593.387 433.422C594.087 431.601 595.327 371.34 594.88 354.807C594.433 338.274 595.739 307.448 594.98 297.396C594.154 285.26 592.56 273.188 590.207 261.254C588.615 256.743 511.83 261.274 511.83 261.274Z" fill="#263238"/>
<path d="M488.355 120.855C491.526 117.333 506.323 100.655 509.262 100.055C512.201 99.4547 519.345 98.1726 520.94 96.5326C522.535 94.8926 529.273 73.7256 526.607 69.8766C523.941 66.0276 513.65 67.1217 510.521 73.6717C507.392 80.2217 507.558 83.6547 502.41 88.1797C497.262 92.7047 474.833 111.045 472.746 112.896C470.659 114.747 474.792 123.749 478.075 125.31C481.358 126.871 488.355 120.855 488.355 120.855Z" fill="#FFBE9D"/>
<path d="M529.244 125.935C521.682 127.521 509.127 128.864 504.974 130.204C500.821 131.544 484.486 137.279 484.608 134.838C484.73 132.397 492.171 121.67 490.827 120.569C489.483 119.468 481.437 118.131 480.097 116.423C478.757 114.715 476.926 110.695 475.097 111.179C473.268 111.663 452.058 131.422 453.511 138.984C456.921 156.813 507.041 169.807 508.201 177.584C509.361 185.361 504.314 259.922 507.059 262.667C509.804 265.412 538.85 275.934 553.487 276.847C568.124 277.76 593.802 272.664 595.203 268.811C596.604 264.958 588.06 190.875 589.066 190.875C590.072 190.875 590.338 214.197 601.487 220.228C604.645 221.581 608.103 222.079 611.515 221.672C614.927 221.265 618.171 219.967 620.922 217.909C622.859 215.709 614.004 184.709 610.011 174.266C606.018 163.823 602.169 142.216 593.111 134.537C584.053 126.858 571.258 128.174 566.857 126.371C562.456 124.568 547.678 125.859 543.957 125.471C539.048 125.36 534.136 125.515 529.244 125.935Z" fill="#037A80"/>
<path d="M623.686 203.888C623.686 203.888 610.651 207.829 609.635 209.183C608.619 210.537 606.812 215.961 609.635 218.222C612.458 220.483 615.558 222.174 618.909 219.566C622.26 216.958 625.316 213.449 627.252 213.006C629.188 212.563 634.981 213.395 637.413 212.44C639.845 211.485 644.457 193.046 642.596 191.931C640.735 190.816 623.686 203.888 623.686 203.888Z" fill="#FFBE9D"/>
<path d="M529.312 123.446C525.104 122.573 516.983 114.632 516.24 106.562C515.513 98.6961 509.731 76.6021 529.861 68.3131C548.747 60.5321 568.181 68.5351 570.974 78.1291C573.582 87.0861 551.413 87.4881 543.285 93.3221C535.157 99.1561 534.604 103.029 532.576 102.105C530.548 101.181 529.312 123.446 529.312 123.446Z" fill="#263238"/>
<path d="M528.972 107.699C528.706 111.299 527.799 128.719 529.313 131.283C530.298 134.027 532.146 136.378 534.58 137.982C537.014 139.587 539.903 140.359 542.813 140.183C552.466 139.883 558.726 130.227 559.254 129.099C559.782 127.971 558.654 114.015 558.654 111.679C558.654 109.343 545.697 103.837 540.481 103.979C535.265 104.121 529.21 104.31 528.972 107.699Z" fill="#F7B796"/>
<path d="M529.864 107.747C530.951 107.716 529.664 114.355 531.64 116.523C533.616 118.691 542.209 130.008 551.279 128.9C559.121 127.945 558.006 121.177 559.138 115.6C560.161 110.54 563.431 110.1 564.593 96.8952C565.036 91.7812 567.454 83.7782 563.014 82.2952C558.574 80.8122 541.914 76.8702 537.783 82.2952C533.652 87.7202 533.244 100.738 531.076 99.0601C528.908 97.3821 524.369 89.1992 521.706 93.6352C519.043 98.0712 524.034 107.917 529.864 107.747Z" fill="#FFBE9D"/>
<path d="M627.525 181.87L617.018 208.736C616.473 210.127 616.911 212.206 617.76 212.189L636.351 211.823C636.661 211.828 636.956 211.492 637.146 210.981L647.093 184.146C647.562 182.889 647.156 181.074 646.409 181.062L628.315 181.078C628.012 181.09 627.724 181.368 627.525 181.87Z" fill="#037A80"/>
<path d="M641.78 188.771C639.209 189.027 635.472 190.471 635.472 191.823C635.472 193.175 638.472 193.523 639.298 193.664C640.124 193.805 641.211 194.049 640.898 194.464C640.585 194.879 639.967 196.943 638.313 196.585C634.893 196.255 631.459 196.1 628.023 196.118C626.623 196.118 624.972 197.1 624.869 198.136C624.766 199.172 624.456 199.377 623.628 199.428C622.8 199.479 621.299 200.256 621.299 201.6C621.299 202.944 624.62 204.154 624.62 204.631C627.077 206.566 629.683 208.305 632.414 209.831C633.693 210.571 636.079 212.453 637.423 212.453C638.302 212.407 639.143 212.078 639.819 211.515C640.495 210.951 640.97 210.183 641.173 209.327C641.34 207.479 643.993 206.136 644.03 205.235C644.067 204.334 643.188 203.656 643.29 203.084C643.392 202.512 645.71 201.72 645.71 200.261C645.533 198.889 645.184 197.545 644.67 196.261C644.537 195.661 643.988 194.345 644.537 194.178C645.086 194.011 646.954 192.262 646.62 190.649C646.286 189.036 642.938 188.65 641.78 188.771Z" fill="#FFBE9D"/>
<path d="M513.114 450.764C516.05 452.349 517.697 457.177 518.114 457.242C518.531 457.307 519.314 457.181 519.314 456.707C519.314 456.233 519.194 454.62 519.733 454.62C520.272 454.62 520.865 457.245 520.984 461.064C521.103 464.883 522.461 473.983 520.984 475.142C520.057 475.868 511.56 480.331 511.321 480.942C511.082 481.553 511.498 485.715 510.786 486.37C510.074 487.025 508.399 488.637 507.086 488.695C502.943 489.151 498.762 489.151 494.62 488.695C491.731 488.129 488.951 487.103 486.389 485.654C486.521 481.622 487.209 477.628 488.435 473.785C489.57 472.533 497.735 461.316 498.397 460.303C499.128 458.776 499.514 457.107 499.529 455.414C499.608 454.276 499.995 453.182 500.648 452.247C501.301 451.312 502.195 450.571 503.236 450.105C506.52 449.329 509.962 449.559 513.113 450.767L513.114 450.764Z" fill="#037A80"/>
</g>
<defs>
<linearGradient id="paint0_linear_47_1133" x1="528.964" y1="431.66" x2="528.964" y2="568.284" gradientUnits="userSpaceOnUse">
<stop stop-color="#E5E5E5"/>
<stop offset="0.603" stop-color="#EEEEEF"/>
<stop offset="1" stop-color="#EEF2F9"/>
</linearGradient>
<clipPath id="clip0_47_1133">
<rect width="1057.93" height="610.453" fill="white" transform="translate(0 0.5)"/>
</clipPath>
</defs>
</svg>
