<svg xmlns="http://www.w3.org/2000/svg" width="89.272" height="90" viewBox="0 0 89.272 90">
  <g id="whatsapp" transform="translate(-1.69)">
    <path id="Path_11887" data-name="Path 11887" d="M44.144.052a44.654,44.654,0,0,0-37.6,64.855l-4.739,23a1.737,1.737,0,0,0,2.1,2.041l22.541-5.34A44.639,44.639,0,1,0,44.144.052Zm26.9,69.3a34.973,34.973,0,0,1-40.269,6.592l-3.139-1.564-13.82,3.274,2.909-14.121L15.175,60.5a34.981,34.981,0,0,1,6.438-40.58A34.95,34.95,0,1,1,71.04,69.35Z" fill="#7ad06d"/>
    <path id="Path_11888" data-name="Path 11888" d="M148.733,138.613l-8.646-2.483a3.222,3.222,0,0,0-3.189.84l-2.114,2.154a3.15,3.15,0,0,1-3.424.723c-4.09-1.655-12.694-9.3-14.891-13.131a3.15,3.15,0,0,1,.249-3.491l1.846-2.388a3.222,3.222,0,0,0,.4-3.274l-3.638-8.227a3.224,3.224,0,0,0-5.034-1.153c-2.413,2.041-5.276,5.142-5.624,8.578-.614,6.058,1.984,13.694,11.809,22.863,11.35,10.593,20.438,11.993,26.356,10.559,3.356-.813,6.039-4.072,7.732-6.741A3.224,3.224,0,0,0,148.733,138.613Z" transform="translate(-80.744 -84.296)" fill="#7ad06d"/>
  </g>
</svg>
